<?xml version="1.0" standalone="no"?><!DOCTYPE svg PUBLIC "-//W3C//DTD SVG 1.1//EN" "http://www.w3.org/Graphics/SVG/1.1/DTD/svg11.dtd"><svg t="1623246834611" class="icon" viewBox="0 0 1024 1024" version="1.1" xmlns="http://www.w3.org/2000/svg" p-id="11901" width="200" height="200" xmlns:xlink="http://www.w3.org/1999/xlink"><defs><style type="text/css"></style></defs><path d="M361.248711 731.249778h301.710222a9.159111 9.159111 0 0 0 9.159111-9.130667v-96a9.159111 9.159111 0 0 0-9.159111-9.159111h-45.710222a9.159111 9.159111 0 0 0-9.130667 9.159111v41.130667h-192v-41.130667a9.159111 9.159111 0 0 0-9.159111-9.159111h-45.710222a9.159111 9.159111 0 0 0-9.130667 9.159111v96c0 5.006222 4.096 9.102222 9.130667 9.102222z m388.551111-140.572445a45.710222 45.710222 0 1 0 91.448889 0 45.710222 45.710222 0 0 0-91.420444 0z m273.180445-191.544889l-27.107556-47.303111a9.130667 9.130667 0 0 0-12.458667-3.328l-57.941333 33.848889-89.486222-247.096889A73.016889 73.016889 0 0 0 766.382933 84.48H271.1936c-39.651556 0-74.865778 25.6-87.096889 63.431111l-85.248 234.496-58.055111-33.820444a9.130667 9.130667 0 0 0-12.458667 3.328l-27.079111 47.189333a9.016889 9.016889 0 0 0 3.299556 12.344889l69.034666 40.220444-16.554666 45.710223a32.597333 32.597333 0 0 0-2.076445 11.434666v397.937778c0 17.948444 13.482667 32.455111 30.065778 32.455111h77.255111c14.051556 0 26.282667-10.609778 29.269334-25.486222l8.789333-43.064889H823.840711l8.817778 43.064889c3.072 14.876444 15.189333 25.486222 29.240889 25.486222h77.255111c16.583111 0 30.065778-14.506667 30.065778-32.426667V508.871111c0-3.896889-0.682667-7.793778-2.048-11.463111l-16.583111-45.710222 68.920888-40.220445a9.130667 9.130667 0 0 0 3.413334-12.344889z m-136.021334 118.414223v270.848H137.248711v-270.848l17.834667-49.152h714.040889l17.834666 49.152zM261.494044 175.928889l0.568889-1.479111 0.483556-1.479111a9.102222 9.102222 0 0 1 8.675555-6.286223h488.675556l86.186667 237.710223H178.379378L261.494044 175.928889zM182.987378 590.677333a45.710222 45.710222 0 1 0 91.448889 0 45.710222 45.710222 0 0 0-91.448889 0z" p-id="11902" fill="#299F25"></path></svg>