<?xml version="1.0" standalone="no"?><!DOCTYPE svg PUBLIC "-//W3C//DTD SVG 1.1//EN" "http://www.w3.org/Graphics/SVG/1.1/DTD/svg11.dtd"><svg t="1623233655223" class="icon" viewBox="0 0 1024 1024" version="1.1" xmlns="http://www.w3.org/2000/svg" p-id="18729" xmlns:xlink="http://www.w3.org/1999/xlink" width="200" height="200"><defs><style type="text/css"></style></defs><path d="M951.7 303.8l-676.9 1.5-49.9-165.6H79.5c-16.6 0-30 13.4-30 30s13.4 30 30 30h100.8l31.9 105.7L306 616.8l24.8 82.2h493.1l42.2-92.8c6.9-15.1 0.2-32.9-14.9-39.7-15.1-6.9-32.9-0.2-39.7 14.9l-26.2 57.7H375.4l-9.1-30.2 531.2-70.1 54.2-235zM848.4 484.7l-499.7 66-55.9-185.4 583.4-1.3-27.8 120.7zM419.8 734.8c-45.8 0-83 37.2-83 83s37.2 83 83 83 83-37.2 83-83c0-45.7-37.2-83-83-83z m0 106c-12.7 0-23-10.3-23-23s10.3-23 23-23 23 10.3 23 23-10.3 23-23 23zM768.6 734.8c-45.8 0-83 37.2-83 83s37.2 83 83 83 83-37.2 83-83c0.1-45.7-37.2-83-83-83z m0 106c-12.7 0-23-10.3-23-23s10.3-23 23-23 23 10.3 23 23c0.1 12.7-10.3 23-23 23z" p-id="18730" fill="#299F25"></path></svg>