<?xml version="1.0" standalone="no"?><!DOCTYPE svg PUBLIC "-//W3C//DTD SVG 1.1//EN" "http://www.w3.org/Graphics/SVG/1.1/DTD/svg11.dtd"><svg t="1623247362375" class="icon" viewBox="0 0 1024 1024" version="1.1" xmlns="http://www.w3.org/2000/svg" p-id="26254" xmlns:xlink="http://www.w3.org/1999/xlink" width="200" height="200"><defs><style type="text/css"></style></defs><path d="M363.093333 532.48a42.666667 42.666667 0 1 0 42.666667 42.666667 42.666667 42.666667 0 0 0-42.666667-42.666667z m0-191.146667a42.666667 42.666667 0 1 0 42.666667 42.666667 42.666667 42.666667 0 0 0-42.666667-42.666667zM512 426.666667a42.666667 42.666667 0 0 0-42.666667 42.666666v42.666667a42.666667 42.666667 0 0 0 85.333334 0v-42.666667a42.666667 42.666667 0 0 0-42.666667-42.666666z m362.666667-61.013334a128 128 0 0 0-98.133334-12.373333 123.733333 123.733333 0 0 0-46.506666 23.893333L235.093333 90.88a42.666667 42.666667 0 0 0-42.666666 0A42.666667 42.666667 0 0 0 170.666667 128v561.92A125.44 125.44 0 0 0 85.333333 810.666667a128 128 0 0 0 124.586667 128h24.746667a792.32 792.32 0 0 0 687.36-401.493334 128 128 0 0 0-46.933334-171.52zM256 201.813333l421.973333 243.626667A536.32 536.32 0 0 1 256 682.666667z m591.786667 293.546667A707.413333 707.413333 0 0 1 213.333333 853.333333a42.666667 42.666667 0 0 1-42.666666-42.666666 42.666667 42.666667 0 0 1 12.8-30.72A42.666667 42.666667 0 0 1 213.333333 768h21.76a618.666667 618.666667 0 0 0 538.453334-314.453333 38.4 38.4 0 0 1 24.746666-18.773334 42.666667 42.666667 0 0 1 32 3.84 42.666667 42.666667 0 0 1 17.92 56.746667z" p-id="26255" fill="#299F25"></path></svg>