<?xml version="1.0" standalone="no"?><!DOCTYPE svg PUBLIC "-//W3C//DTD SVG 1.1//EN" "http://www.w3.org/Graphics/SVG/1.1/DTD/svg11.dtd"><svg t="1623245111000" class="icon" viewBox="0 0 1024 1024" version="1.1" xmlns="http://www.w3.org/2000/svg" p-id="44642" xmlns:xlink="http://www.w3.org/1999/xlink" width="200" height="200"><defs><style type="text/css"></style></defs><path d="M0 0v1024h1024V0z m963.764706 963.764706H60.235294V60.235294h903.529412z" fill="#17abe3" p-id="44643"></path><path d="M482.785882 752.941176H542.117647v60.235295h-59.331765zM515.312941 271.058824a107.821176 107.821176 0 0 1 82.82353 33.129411A142.155294 142.155294 0 0 1 632.470588 387.915294a67.463529 67.463529 0 0 1-23.190588 50.898824q-16.865882 19.275294-56.018824 62.042353a329.487059 329.487059 0 0 0-49.694117 64.150588 225.581176 225.581176 0 0 0-18.371765 47.585882A410.804706 410.804706 0 0 0 481.882353 692.705882h60.235294a210.823529 210.823529 0 0 1 6.625882-68.969411 127.397647 127.397647 0 0 1 20.781177-43.068236 773.722353 773.722353 0 0 1 55.41647-60.235294 274.371765 274.371765 0 0 0 54.814118-71.378823 153.901176 153.901176 0 0 0 12.950588-64.150589 163.84 163.84 0 0 0-50.29647-125.289411 176.489412 176.489412 0 0 0-125.590588-46.98353 204.197647 204.197647 0 0 0-70.776471 12.348236 176.188235 176.188235 0 0 0-60.235294 38.249411 157.214118 157.214118 0 0 0-39.755294 60.235294A333.703529 333.703529 0 0 0 331.294118 421.647059h60.235294c0-96.677647 43.068235-150.588235 123.783529-150.588235z" fill="#17abe3" p-id="44644"></path></svg>