<?xml version="1.0" standalone="no"?><!DOCTYPE svg PUBLIC "-//W3C//DTD SVG 1.1//EN" "http://www.w3.org/Graphics/SVG/1.1/DTD/svg11.dtd"><svg t="1623247220438" class="icon" viewBox="0 0 1024 1024" version="1.1" xmlns="http://www.w3.org/2000/svg" p-id="20629" xmlns:xlink="http://www.w3.org/1999/xlink" width="200" height="200"><defs><style type="text/css"></style></defs><path d="M960 780.686222H64a9.159111 9.159111 0 0 0-9.102222 9.130667v64c0 5.034667 4.096 9.159111 9.102222 9.159111h896a9.159111 9.159111 0 0 0 9.159111-9.159111v-64a9.159111 9.159111 0 0 0-9.130667-9.130667z m-843.747556-143.075555l45.368889 45.141333c3.527111 3.527111 9.386667 3.527111 12.913778 0l268.231111-267.320889 111.530667 111.217778a36.693333 36.693333 0 0 0 51.655111 0L907.946667 225.792a9.187556 9.187556 0 0 0 0-12.913778l-45.397334-45.255111a9.187556 9.187556 0 0 0-12.913777 0l-269.368889 268.572445-111.644445-111.217778a36.693333 36.693333 0 0 0-51.655111 0L116.252444 624.696889a9.102222 9.102222 0 0 0 0 12.942222z" p-id="20630" fill="#FB645F"></path></svg>