<?xml version="1.0" standalone="no"?><!DOCTYPE svg PUBLIC "-//W3C//DTD SVG 1.1//EN" "http://www.w3.org/Graphics/SVG/1.1/DTD/svg11.dtd"><svg t="1623244930203" class="icon" viewBox="0 0 1024 1024" version="1.1" xmlns="http://www.w3.org/2000/svg" p-id="43114" xmlns:xlink="http://www.w3.org/1999/xlink" width="200" height="200"><defs><style type="text/css"></style></defs><path d="M847.644444 921.6H261.688889c-11.377778 0-22.755556-5.688889-22.755556-17.066667s-5.688889-22.755556 0-28.444444c68.266667-91.022222 170.666667-147.911111 284.444445-153.6-11.377778-85.333333-45.511111-164.977778-102.4-233.244445l-17.066667-17.066666c-11.377778 22.755556-28.444444 45.511111-45.511111 68.266666-45.511111 62.577778-96.711111 108.088889-119.466667 130.844445-11.377778 11.377778-28.444444 11.377778-39.822222 11.377778-17.066667-5.688889-28.444444-17.066667-28.444444-34.133334-11.377778-34.133333-11.377778-73.955556-11.377778-108.088889 5.688889-45.511111 17.066667-85.333333 39.822222-119.466666 5.688889-5.688889 11.377778-17.066667 17.066667-22.755556 5.688889-11.377778 11.377778-17.066667 22.755555-28.444444-51.2-5.688889-91.022222-22.755556-108.088889-28.444445-11.377778-5.688889-22.755556-22.755556-22.755555-34.133333 0-17.066667 11.377778-28.444444 28.444444-39.822222 28.444444-11.377778 51.2-22.755556 79.644445-28.444445 28.444444-5.688889 56.888889-11.377778 79.644444-5.688889h17.066667c22.755556 5.688889 39.822222 11.377778 56.888889 22.755556 11.377778-28.444444 28.444444-51.2 45.511111-73.955556 5.688889 0 11.377778-5.688889 17.066667-11.377777 28.444444-22.755556 56.888889-45.511111 91.022222-62.577778 28.444444-17.066667 62.577778-28.444444 102.4-34.133333 17.066667-5.688889 34.133333 0 45.511111 11.377777 5.688889 11.377778 11.377778 28.444444 0 39.822223-17.066667 28.444444-51.2 85.333333-108.088889 147.911111 28.444444-5.688889 56.888889-5.688889 85.333333 0 11.377778 0 22.755556 0 34.133334 5.688889 45.511111 11.377778 91.022222 28.444444 130.844444 51.2 34.133333 22.755556 62.577778 45.511111 91.022222 73.955555 11.377778 11.377778 11.377778 28.444444 5.688889 45.511111-5.688889 17.066667-22.755556 22.755556-39.822222 28.444445-45.511111 0-136.533333 5.688889-244.622222-5.688889h-17.066667c11.377778 11.377778 17.066667 22.755556 28.444445 34.133333 56.888889 73.955556 96.711111 170.666667 102.4 267.377778h5.688888c56.888889 28.444444 96.711111 62.577778 130.844445 108.088889 5.688889 11.377778 5.688889 22.755556 0 28.444444-11.377778 5.688889-17.066667 11.377778-28.444445 11.377778z m-523.377777-56.888889h455.111111c-17.066667-17.066667-39.822222-34.133333-68.266667-45.511111-5.688889-5.688889-11.377778-5.688889-17.066667-11.377778-5.688889-5.688889-11.377778-11.377778-11.377777-22.755555-5.688889-91.022222-34.133333-182.044444-91.022223-250.311111-28.444444-34.133333-56.888889-62.577778-85.333333-85.333334-11.377778-11.377778-17.066667-28.444444-11.377778-39.822222 5.688889-11.377778 22.755556-17.066667 34.133334-17.066667 34.133333 5.688889 73.955556 11.377778 108.088889 17.066667 85.333333 11.377778 153.6 11.377778 204.8 5.688889-17.066667-17.066667-34.133333-28.444444-56.888889-39.822222-34.133333-22.755556-73.955556-34.133333-113.777778-45.511111-11.377778 0-17.066667-5.688889-28.444445-5.688889-51.2-5.688889-108.088889 0-159.288888 22.755555-11.377778 5.688889-28.444444 0-34.133334-11.377778-5.688889-11.377778-5.688889-22.755556 5.688889-34.133333l68.266667-68.266667c34.133333-34.133333 56.888889-68.266667 73.955555-96.711111-17.066667 5.688889-34.133333 11.377778-45.511111 17.066667-28.444444 17.066667-56.888889 34.133333-79.644444 56.888889-5.688889 5.688889-11.377778 11.377778-11.377778 17.066667-28.444444 28.444444-45.511111 56.888889-51.2 91.022222 0 11.377778-5.688889 22.755556-17.066667 22.755555-11.377778 0-22.755556 0-28.444444-11.377777-17.066667-17.066667-39.822222-28.444444-62.577778-34.133334h-11.377778c-17.066667 0-39.822222 0-62.577777 5.688889-5.688889 0-11.377778 5.688889-22.755556 5.688889 17.066667 5.688889 34.133333 11.377778 56.888889 11.377778 17.066667 5.688889 39.822222 5.688889 56.888889 5.688889 11.377778 5.688889 22.755556 17.066667 22.755555 28.444444s-5.688889 28.444444-17.066666 28.444445c-22.755556 11.377778-45.511111 28.444444-68.266667 51.2 0 5.688889-5.688889 11.377778-11.377778 17.066666-17.066667 28.444444-28.444444 62.577778-28.444444 96.711111v68.266667c22.755556-22.755556 62.577778-62.577778 96.711111-108.088889 22.755556-28.444444 39.822222-62.577778 62.577778-96.711111 5.688889-5.688889 11.377778-11.377778 17.066666-11.377778 5.688889 0 17.066667 0 22.755556 5.688889 17.066667 17.066667 34.133333 28.444444 45.511111 51.2 73.955556 79.644444 113.777778 182.044444 119.466667 295.822222 0 5.688889 0 17.066667-5.688889 22.755556-5.688889 5.688889-11.377778 11.377778-22.755556 11.377778-85.333333-11.377778-164.977778 22.755556-227.555555 79.644444zM625.777778 91.022222z" fill="#299F25" p-id="43115"></path></svg>